<svg width="52.000000" height="52.000000" viewBox="0 0 52 52" fill="none" xmlns="http://www.w3.org/2000/svg" xmlns:xlink="http://www.w3.org/1999/xlink">
	<desc>
			Created with Pixso.
	</desc>
	<defs>
		<clipPath id="clip2369_1962">
			<rect id="vector.svg" width="30.000000" height="30.000000" transform="translate(11.000000 11.000000)" fill="white" fill-opacity="0"/>
		</clipPath>
		<clipPath id="clip2369_1961">
			<rect id="Background" rx="26.000000" width="52.000000" height="52.000000" fill="white" fill-opacity="0"/>
		</clipPath>
	</defs>
	<rect id="Background" rx="26.000000" width="52.000000" height="52.000000" fill="#FFFFFF" fill-opacity="1.000000"/>
	<g clip-path="url(#clip2369_1961)">
		<g clip-path="url(#clip2369_1962)">
			<path id="Vector" d="M11.91 19.8C11.06 20.4 10.56 21.69 11.5 23.22C12.44 24.76 25.89 35.13 26.38 35.42C26.87 35.7 27.37 35.75 28.62 34.74C29.88 33.74 40.36 25.86 40.63 25.62C41.06 25.25 41.17 24.33 40.63 23.9C40.63 23.9 27.93 33.4 27.51 33.78C27.1 34.17 26.45 33.54 26.57 32.73C26.69 31.91 26.78 31.82 28.4 30.57C30.01 29.32 39.16 22.39 39.57 22.08C40.04 21.73 40.05 21.12 39.28 20.58C38.21 19.82 26.65 11.6 26.26 11.31C25.87 11.02 25.34 10.76 24.53 11.34C23.72 11.91 13.48 18.68 11.91 19.8Z" fill="#316DC2" fill-opacity="1.000000" fill-rule="evenodd"/>
			<path id="Vector" d="M26.38 36.43C26.06 36.24 20.16 31.71 15.87 28.18L15.87 35.54C15.87 40.9 30.99 43.77 36 37.17L36 30.15C32.92 32.47 29.33 35.19 28.62 35.76C27.37 36.76 26.87 36.72 26.38 36.43Z" fill="#316DC2" fill-opacity="1.000000" fill-rule="evenodd"/>
			<path id="Vector" d="M32.78 28.37C32.78 28.37 35.03 29.5 35.19 34.05L34.1 33.75L33.23 35.6C32.86 30.62 30.85 29.89 30.85 29.89L32.78 28.37Z" fill="#98B8E6" fill-opacity="1.000000" fill-rule="evenodd"/>
		</g>
	</g>
</svg>
