<svg width="6.828125" height="11.555420" viewBox="0 0 6.82812 11.5554" xmlns="http://www.w3.org/2000/svg" xmlns:xlink="http://www.w3.org/1999/xlink"><defs/><path id="Vector" d="M3.41 1.74C4.1 1.74 4.67 2.3 4.67 2.98C4.67 3.66 4.1 4.21 3.41 4.21C2.71 4.21 2.15 3.66 2.15 2.98C2.15 2.3 2.71 1.74 3.41 1.74ZM3.41 5.96C5.09 5.96 6.45 4.62 6.45 2.98C6.45 1.33 5.09 0 3.41 0C1.73 0 0.37 1.33 0.37 2.98C0.37 4.62 1.73 5.96 3.41 5.96ZM4.64 8.39C5.26 8.25 5.86 8.01 6.41 7.67C6.82 7.42 6.95 6.88 6.69 6.47C6.42 6.06 5.87 5.94 5.46 6.2C4.21 6.96 2.61 6.96 1.36 6.2C0.94 5.94 0.39 6.06 0.13 6.47C-0.13 6.88 0 7.42 0.41 7.67C0.96 8.01 1.56 8.25 2.18 8.39L0.48 10.06C0.13 10.4 0.13 10.95 0.48 11.29C0.65 11.46 0.88 11.55 1.11 11.55C1.33 11.55 1.56 11.46 1.74 11.29L3.41 9.66L5.08 11.29C5.43 11.64 5.99 11.64 6.34 11.29C6.69 10.95 6.69 10.4 6.34 10.06L4.64 8.39Z" fill-opacity="1.000000" fill-rule="evenodd"/></svg>
