<svg width="10.504883" height="11.030273" viewBox="0 0 10.5049 11.0303" xmlns="http://www.w3.org/2000/svg" xmlns:xlink="http://www.w3.org/1999/xlink"><defs/><path id="Vector" d="M6.27 0C5.93 0 5.62 0.17 5.41 0.43C5.21 0.69 5.1 1.01 5.02 1.34C4.89 1.87 4.85 2.47 4.84 3C3.89 3.07 3.04 3.36 2.32 3.82C2.03 3.56 1.69 3.42 1.35 3.42C0.97 3.43 0.61 3.6 0.34 3.95C-0.17 4.63 -0.11 5.73 0.48 6.39C0.45 6.59 0.42 6.8 0.42 7.01C0.42 9.23 2.58 11.03 5.25 11.03C7.91 11.03 10.08 9.23 10.08 7.01C10.08 6.8 10.05 6.59 10.01 6.39C10.61 5.73 10.66 4.63 10.15 3.95C9.88 3.6 9.52 3.43 9.14 3.42C8.81 3.42 8.46 3.56 8.17 3.82C7.46 3.36 6.61 3.07 5.67 3C5.68 2.51 5.72 2 5.81 1.61C5.87 1.37 5.94 1.19 6.01 1.1C6.09 1 6.14 0.96 6.27 0.96C6.54 0.96 6.58 1.05 6.74 1.28C6.83 1.39 6.92 1.53 7.07 1.67C7.23 1.81 7.45 1.93 7.7 1.93L7.7 0.96C7.63 0.96 7.62 0.96 7.57 0.92C7.53 0.87 7.46 0.77 7.37 0.64C7.18 0.39 6.81 0 6.27 0ZM8.93 0.09C8.29 0.09 7.78 0.69 7.78 1.45C7.78 2.2 8.29 2.81 8.93 2.81C9.56 2.81 10.08 2.2 10.08 1.45C10.08 0.69 9.56 0.09 8.93 0.09ZM8.93 0.57C9.33 0.57 9.67 0.96 9.67 1.45C9.67 1.93 9.33 2.32 8.93 2.32C8.52 2.32 8.19 1.93 8.19 1.45C8.19 0.96 8.52 0.57 8.93 0.57ZM5.25 3.76C7.51 3.76 9.42 5.25 9.42 7.01C9.42 8.77 7.51 10.25 5.25 10.25C2.99 10.25 1.07 8.77 1.07 7.01C1.07 5.25 2.99 3.76 5.25 3.76ZM1.37 4.2C1.48 4.2 1.6 4.23 1.71 4.29C1.3 4.65 0.97 5.08 0.75 5.56C0.6 5.18 0.64 4.71 0.83 4.47C0.97 4.29 1.16 4.19 1.37 4.2ZM9.13 4.2C9.34 4.19 9.53 4.29 9.67 4.47C9.86 4.71 9.9 5.18 9.74 5.56C9.52 5.08 9.2 4.65 8.79 4.29C8.9 4.23 9.02 4.2 9.13 4.2ZM3.61 5.4C3.2 5.4 2.87 5.8 2.87 6.28C2.87 6.76 3.2 7.16 3.61 7.16C4.02 7.16 4.35 6.76 4.35 6.28C4.35 5.8 4.02 5.4 3.61 5.4ZM6.88 5.4C6.47 5.4 6.14 5.8 6.14 6.28C6.14 6.76 6.47 7.16 6.88 7.16C7.29 7.16 7.62 6.76 7.62 6.28C7.62 5.8 7.29 5.4 6.88 5.4ZM3.22 8.38C3.48 9.02 4.28 9.64 5.25 9.64C6.21 9.64 7.03 9.02 7.29 8.38C6.82 8.74 6.07 8.99 5.25 8.99C4.42 8.99 3.69 8.74 3.22 8.38Z" fill-opacity="1.000000" fill-rule="evenodd"/></svg>
