<svg width="11.555664" height="6.302979" viewBox="0 0 11.5557 6.30298" xmlns="http://www.w3.org/2000/svg" xmlns:xlink="http://www.w3.org/1999/xlink"><defs/><path id="Vector" d="M11.45 5.62C11.42 5.57 11.22 5.17 10.3 4.35C9.33 3.49 9.46 3.63 10.63 2.14C11.34 1.24 11.62 0.69 11.53 0.45C11.45 0.22 10.93 0.28 10.93 0.28L9.19 0.29C9.19 0.29 9.06 0.28 8.96 0.33C8.87 0.39 8.81 0.51 8.81 0.51C8.81 0.51 8.54 1.21 8.17 1.81C7.4 3.06 7.09 3.13 6.96 3.05C6.67 2.87 6.74 2.32 6.74 1.93C6.74 0.71 6.93 0.2 6.36 0.07C6.17 0.03 6.04 0 5.55 0C4.93 -0.01 4.41 0 4.11 0.14C3.91 0.23 3.76 0.44 3.85 0.45C3.97 0.46 4.23 0.52 4.37 0.69C4.54 0.93 4.54 1.45 4.54 1.45C4.54 1.45 4.64 2.88 4.3 3.06C4.06 3.18 3.74 2.93 3.05 1.79C2.7 1.21 2.43 0.56 2.43 0.56C2.43 0.56 2.38 0.44 2.29 0.38C2.18 0.3 2.02 0.27 2.02 0.27L0.37 0.28C0.37 0.28 0.12 0.29 0.03 0.39C-0.05 0.49 0.03 0.67 0.03 0.67C0.03 0.67 1.32 3.57 2.78 5.02C4.12 6.36 5.65 6.27 5.65 6.27L6.34 6.27C6.34 6.27 6.55 6.25 6.65 6.14C6.75 6.04 6.75 5.85 6.75 5.85C6.75 5.85 6.74 4.96 7.17 4.83C7.59 4.7 8.13 5.69 8.71 6.07C9.15 6.36 9.48 6.29 9.48 6.29L11.02 6.27C11.02 6.27 11.83 6.22 11.45 5.62Z" fill-opacity="1.000000" fill-rule="evenodd"/></svg>
